<svg width="12" height="9" viewBox="0 0 12 9" fill="none" xmlns="http://www.w3.org/2000/svg">
<path d="M0 0.5C0 0.367392 0.0526785 0.240215 0.146447 0.146447C0.240215 0.0526785 0.367392 0 0.5 0H11.5C11.6326 0 11.7598 0.0526785 11.8536 0.146447C11.9473 0.240215 12 0.367392 12 0.5C12 0.632608 11.9473 0.759785 11.8536 0.853553C11.7598 0.947321 11.6326 1 11.5 1H0.5C0.367392 1 0.240215 0.947321 0.146447 0.853553C0.0526785 0.759785 0 0.632608 0 0.5ZM0 4.5C0 4.36739 0.0526785 4.24021 0.146447 4.14645C0.240215 4.05268 0.367392 4 0.5 4H11.5C11.6326 4 11.7598 4.05268 11.8536 4.14645C11.9473 4.24021 12 4.36739 12 4.5C12 4.63261 11.9473 4.75979 11.8536 4.85355C11.7598 4.94732 11.6326 5 11.5 5H0.5C0.367392 5 0.240215 4.94732 0.146447 4.85355C0.0526785 4.75979 0 4.63261 0 4.5ZM0 8.5C0 8.36739 0.0526785 8.24021 0.146447 8.14645C0.240215 8.05268 0.367392 8 0.5 8H11.5C11.6326 8 11.7598 8.05268 11.8536 8.14645C11.9473 8.24021 12 8.36739 12 8.5C12 8.63261 11.9473 8.75979 11.8536 8.85355C11.7598 8.94732 11.6326 9 11.5 9H0.5C0.367392 9 0.240215 8.94732 0.146447 8.85355C0.0526785 8.75979 0 8.63261 0 8.5Z" fill="#0C1439"/>
</svg>
