<svg width="49" height="46" viewBox="0 0 49 46" fill="none" xmlns="http://www.w3.org/2000/svg">
<path d="M48.0714 37.0838C47.6854 36.4694 47.1808 35.938 46.5871 35.5209C45.9934 35.1038 45.3225 34.8092 44.6136 34.6542C41.9015 34.0235 39.5493 32.3448 38.0711 29.9851C36.5928 27.6253 36.1088 24.7764 36.7245 22.0608C36.9613 21.0113 36.8827 19.9151 36.4985 18.9101C36.1143 17.905 35.4418 17.0359 34.5653 16.4119C33.6887 15.7879 32.6474 15.4368 31.5719 15.4026C30.4965 15.3685 29.4351 15.6529 28.5207 16.2201C27.6064 16.7873 26.8801 17.612 26.433 18.5906C25.9859 19.5693 25.8378 20.6582 26.0076 21.7207C26.1773 22.7832 26.6572 23.7719 27.387 24.5625C28.1167 25.3531 29.0638 25.9105 30.1093 26.1646C31.4619 26.4697 32.741 27.0387 33.8732 27.8391C35.0054 28.6395 35.9686 29.6555 36.7074 30.8287C37.4462 32.0021 37.9462 33.3097 38.1786 34.6766C38.4112 36.0435 38.3716 37.4429 38.0622 38.7945C37.879 39.6658 37.9117 40.5687 38.1574 41.4244C38.4031 42.2802 38.8544 43.0628 39.4719 43.7043C40.0894 44.3457 40.8544 44.8264 41.7003 45.1044C42.5461 45.3824 43.4471 45.4492 44.3247 45.2993C45.2023 45.1493 46.03 44.7869 46.7355 44.2438C47.441 43.7006 48.0029 42.9932 48.3724 42.1832C48.7418 41.373 48.9075 40.4849 48.8551 39.5961C48.8026 38.7073 48.5336 37.8448 48.0714 37.0838Z" fill="#0C1439"/>
<path d="M14.5039 31.0236C15.459 31.5448 16.548 31.7687 17.6312 31.6667C18.7145 31.5647 19.7424 31.1413 20.5834 30.451C21.4244 29.7606 22.0399 28.8347 22.3509 27.7921C22.662 26.7495 22.6545 25.6377 22.3293 24.5995C21.9171 23.2755 21.7703 21.8833 21.8972 20.5024C22.0242 19.1216 22.4223 17.7795 23.0691 16.5529C23.7158 15.3264 24.5982 14.2395 25.6658 13.3546C26.7333 12.4697 27.965 11.8043 29.2903 11.3964C30.3181 11.0744 31.2277 10.4556 31.9047 9.61793C32.5816 8.78023 32.9957 7.761 33.0947 6.68849C33.1938 5.61598 32.9734 4.53812 32.4613 3.59063C31.9493 2.64309 31.1683 1.86817 30.2169 1.36344C29.2654 0.858708 28.1859 0.646626 27.1143 0.754005C26.0426 0.861316 25.0266 1.28321 24.1941 1.96666C23.3616 2.65004 22.7499 3.56443 22.4359 4.59468C22.1219 5.62494 22.1196 6.72506 22.4294 7.75659C23.2425 10.4197 22.9675 13.2965 21.6647 15.7573C20.3618 18.2181 18.1371 20.0625 15.4775 20.8869C14.4276 21.1914 13.4932 21.804 12.7954 22.6455C12.0976 23.487 11.6684 24.5186 11.5635 25.6067C11.4587 26.6948 11.6828 27.7894 12.2071 28.7486C12.7314 29.708 13.5315 30.4878 14.5039 30.9871V31.0236Z" fill="#0C1439"/>
<path d="M28.5533 30.1318C27.8273 30.1572 27.1139 30.3273 26.4545 30.632C25.7951 30.9367 25.2032 31.3698 24.7133 31.9062C22.8128 33.9389 20.1847 35.1366 17.4037 35.2372C14.6226 35.3378 11.9148 34.3332 9.87238 32.443C9.34465 31.9478 8.72377 31.5625 8.04581 31.3095C7.36791 31.0564 6.64641 30.9406 5.92331 30.9689C5.03326 31.0109 4.16695 31.2701 3.40013 31.7239C2.63323 32.1777 1.98916 32.8123 1.52401 33.5722C1.0588 34.3322 0.786742 35.1945 0.731448 36.0838C0.676221 36.9732 0.839429 37.8625 1.20696 38.6743C1.5745 39.486 2.13506 40.1954 2.83983 40.7407C3.54461 41.2859 4.37208 41.6503 5.25009 41.8022C6.12811 41.954 7.02999 41.8887 7.87692 41.6118C8.72391 41.3349 9.4902 40.855 10.1089 40.2138C11.0502 39.1947 12.1832 38.3713 13.4431 37.7909C14.7031 37.2104 16.0652 36.8841 17.4514 36.8309C18.8377 36.7777 20.2208 36.9984 21.5216 37.4805C22.8224 37.9627 24.0152 38.6967 25.0318 39.6406C25.6937 40.2386 26.492 40.6653 27.3569 40.8834C28.2219 41.1016 29.1271 41.1045 29.9934 40.8919C30.8597 40.6792 31.6606 40.2576 32.3263 39.6638C32.9919 39.07 33.5019 38.3221 33.8118 37.4856C34.1215 36.6491 34.2216 35.7495 34.1034 34.8654C33.985 33.9813 33.6518 33.1396 33.1329 32.414C32.6141 31.6884 31.9254 31.101 31.1271 30.7032C30.3287 30.3053 29.445 30.1091 28.5533 30.1318Z" fill="#0C1439"/>
</svg>
