<svg width="55" height="55" viewBox="0 0 55 55" fill="none" xmlns="http://www.w3.org/2000/svg">
<g clip-path="url(#clip0_200_93)">
<path fill-rule="evenodd" clip-rule="evenodd" d="M27.412 1.43902C27.3436 1.43902 27.2513 1.44958 27.1772 1.45074V1.46246C23.0874 1.5101 13.1449 2.37563 9.48761 11.2874C7.66477 8.86453 9.48611 11.2882 3.60673 5.71172C3.60673 5.71172 -3.76982 12.9394 6.2948 18.0721C9.79069 50.5068 2.66854 62.9705 23.3623 62.525C24.5412 62.4996 25.8355 62.5167 27.1772 62.5485H27.2124L27.8228 62.5602V62.5367C29.1657 62.5049 30.4578 62.4878 31.6377 62.5133C52.3315 62.9588 45.2093 50.4951 48.7052 18.0604C58.7698 12.9276 51.3933 5.69996 51.3933 5.69996C45.514 11.2764 47.3352 8.85277 45.5124 11.2756C41.7316 2.06302 31.2158 1.43896 27.412 1.43896L27.412 1.43902Z" fill="#333333" stroke="black" stroke-width="1.62464"/>
<path fill-rule="evenodd" clip-rule="evenodd" d="M47.4546 55.4755C47.4546 67.3676 38.7309 77.0081 27.9696 77.0081C17.2084 77.0081 8.48462 67.3676 8.48462 55.4755C8.48462 43.5834 17.2084 33.9429 27.9696 33.9429C38.7309 33.9429 47.4546 43.5834 47.4546 55.4755Z" fill="#93939F" stroke="black" stroke-width="0.756425"/>
<path fill-rule="evenodd" clip-rule="evenodd" d="M27.678 34.1927C38.1438 34.5648 46.5297 44.0529 46.5297 55.709C46.5297 66.71 39.0646 75.7744 29.427 77.0726C36.1514 75.1952 41.2357 66.4137 41.2357 55.8616C41.2357 44.4099 35.2507 35.0412 27.678 34.3218V34.1927Z" fill="#7F7F8D"/>
<path fill-rule="evenodd" clip-rule="evenodd" d="M27.6273 33.8741C17.1615 34.2463 8.77563 43.7343 8.77563 55.3904C8.77563 66.3914 16.2407 75.4559 25.8783 76.7541C19.1538 74.8767 14.0696 66.0952 14.0696 55.543C14.0696 44.0913 20.0546 34.7226 27.6273 34.0033V33.8741Z" fill="#C1C1C8"/>
<path fill-rule="evenodd" clip-rule="evenodd" d="M20.35 9.41937C15.5194 9.41937 11.5964 13.9548 11.5964 19.5441C11.5964 25.1334 15.5194 29.6683 20.35 29.6683C23.1888 29.6683 25.7075 28.1005 27.3067 25.6744C28.9053 28.1022 31.43 29.6683 34.2704 29.6683C39.0994 29.6683 43.0229 25.1323 43.0229 19.5441C43.0229 13.9559 39.0994 9.41937 34.2704 9.41937C31.4305 9.41937 28.9053 10.9866 27.3067 13.4138C25.7075 10.9882 23.1882 9.41937 20.35 9.41937Z" fill="white" stroke="black" stroke-width="1.5336"/>
<path opacity="0.3374" fill-rule="evenodd" clip-rule="evenodd" d="M38.6247 10.3979C38.7315 11.0405 38.7823 11.7078 38.7823 12.3862C38.7823 18.1578 34.7377 22.8367 29.7502 22.8367C26.8166 22.8367 24.2 21.2221 22.5489 18.7147C20.8972 21.2204 18.3037 22.8367 15.3718 22.8367C13.9173 22.8367 12.5405 22.4406 11.3225 21.7334C12.1259 26.5561 15.795 30.2078 20.1969 30.2078C23.1289 30.2078 25.7345 28.5794 27.3862 26.0737C29.0373 28.5811 31.6418 30.2078 34.5754 30.2078C39.5628 30.2078 43.6195 25.5168 43.6195 19.7452C43.6195 15.6554 41.5841 12.1164 38.6247 10.3979Z" fill="#A5A5A5"/>
<path fill-rule="evenodd" clip-rule="evenodd" d="M26.7529 20.2286C26.7529 21.6279 25.6178 22.7625 24.2185 22.7625C22.8191 22.7625 21.6846 21.6279 21.6846 20.2286C21.6846 18.8287 22.8197 17.6942 24.2185 17.6942C25.6184 17.6947 26.7529 18.8287 26.7529 20.2286Z" fill="black" stroke="black" stroke-width="0.972075"/>
<path fill-rule="evenodd" clip-rule="evenodd" d="M23.962 19.3415C23.962 19.7044 23.6674 19.9984 23.3046 19.9984C22.9418 19.9984 22.6477 19.7044 22.6477 19.3415C22.6477 18.9787 22.9418 18.6841 23.3046 18.6841C23.6674 18.6841 23.962 18.9787 23.962 19.3415Z" fill="white"/>
<path fill-rule="evenodd" clip-rule="evenodd" d="M33.1709 20.2286C33.1709 21.6279 32.0363 22.7625 30.637 22.7625C29.2371 22.7625 28.1025 21.6279 28.1025 20.2286C28.1025 18.8287 29.2371 17.6942 30.637 17.6942C32.0369 17.6942 33.1709 18.8287 33.1709 20.2286Z" fill="black" stroke="black" stroke-width="0.972075"/>
<path fill-rule="evenodd" clip-rule="evenodd" d="M30.3795 19.3415C30.3795 19.7044 30.0854 19.9984 29.7226 19.9984C29.3597 19.9984 29.0657 19.7044 29.0657 19.3415C29.0657 18.9787 29.3597 18.6841 29.7226 18.6841C30.0854 18.6841 30.3795 18.9787 30.3795 19.3415Z" fill="white"/>
<path fill-rule="evenodd" clip-rule="evenodd" d="M2.94294 8.34137C2.94294 8.34137 -0.872601 12.7638 5.75998 16.9569C6.8248 15.9252 6.97704 15.7428 8.22959 14.7496V13.9514C6.71221 13.1238 7.41263 12.0413 4.93804 8.96507L2.94294 8.34137Z" fill="url(#paint0_linear_200_93)" stroke="black" stroke-width="0.375625"/>
<path fill-rule="evenodd" clip-rule="evenodd" d="M52.4378 8.53784C52.4378 8.53784 56.2533 12.9602 49.6207 17.1534C48.5559 16.1217 48.4037 15.9392 47.1511 14.946V14.1478C48.6685 13.3202 47.9681 12.2378 50.4427 9.16154L52.4378 8.53784Z" fill="url(#paint1_linear_200_93)" stroke="black" stroke-width="0.375625"/>
<path fill-rule="evenodd" clip-rule="evenodd" d="M25.158 34.8228C35.6237 35.1949 44.0096 44.6829 44.0096 56.339C44.0096 67.34 36.5446 76.4045 26.907 77.7027C33.6314 75.8253 38.7157 67.0438 38.7157 56.4916C38.7157 45.0399 32.7306 35.6712 25.158 34.9519V34.8228Z" fill="#7F7F8D"/>
<path fill-rule="evenodd" clip-rule="evenodd" d="M27.4916 26.6499C24.2632 26.6499 21.4789 28.2413 20.2021 30.5339C17.2572 31.4434 15.366 32.8702 15.366 34.4709C15.366 34.9118 15.5187 35.3433 15.7885 35.7504C15.5858 36.2226 15.4833 36.7145 15.4833 37.2192C15.4833 40.8664 21.0756 43.8212 27.9729 43.8212C34.8702 43.8212 40.4624 40.8664 40.4624 37.2192C40.4624 36.6387 40.3176 36.0747 40.0516 35.5384C40.2388 35.1956 40.345 34.836 40.345 34.4709C40.345 32.7183 38.0742 31.1775 34.6402 30.2916C33.3071 28.129 30.606 26.6499 27.4916 26.6499Z" fill="url(#paint2_linear_200_93)" stroke="black" stroke-width="0.75125"/>
<path fill-rule="evenodd" clip-rule="evenodd" d="M32.063 28.8543C32.063 31.2901 30.0883 33.2648 27.6525 33.2648C25.2166 33.2648 23.2419 31.2901 23.2419 28.8543C23.2419 26.4184 25.2166 24.4437 27.6525 24.4437C30.0883 24.4437 32.063 26.4184 32.063 28.8543Z" fill="black"/>
<path fill-rule="evenodd" clip-rule="evenodd" d="M22.2993 38.3609H27.2985V45.9787H22.2993V38.3609Z" fill="url(#paint3_linear_200_93)" stroke="black" stroke-width="0.851516"/>
<path fill-rule="evenodd" clip-rule="evenodd" d="M27.3596 38.2194H32.3588V45.8372H27.3596V38.2194Z" fill="url(#paint4_linear_200_93)" stroke="black" stroke-width="0.851516"/>
<path d="M17.5715 35.7857C24.8342 39.8395 31.6261 39.185 38.049 34.8406" stroke="black" stroke-width="1.5025"/>
</g>
<defs>
<linearGradient id="paint0_linear_200_93" x1="1.66508" y1="173.221" x2="8.41655" y2="173.221" gradientUnits="userSpaceOnUse">
<stop stop-color="#F1AAC2"/>
<stop offset="1" stop-color="#E5638F"/>
</linearGradient>
<linearGradient id="paint1_linear_200_93" x1="53.7156" y1="173.221" x2="46.9642" y2="173.221" gradientUnits="userSpaceOnUse">
<stop stop-color="#F1AAC2"/>
<stop offset="1" stop-color="#E5638F"/>
</linearGradient>
<linearGradient id="paint2_linear_200_93" x1="22.2324" y1="29.8759" x2="31.8372" y2="45.864" gradientUnits="userSpaceOnUse">
<stop stop-color="#FFCEAE"/>
<stop offset="1" stop-color="#FFB280"/>
</linearGradient>
<linearGradient id="paint3_linear_200_93" x1="21.8688" y1="173.221" x2="27.7263" y2="173.221" gradientUnits="userSpaceOnUse">
<stop stop-color="#8A8A8A"/>
<stop offset="0.2857" stop-color="#F1F1F1"/>
<stop offset="1" stop-color="white"/>
</linearGradient>
<linearGradient id="paint4_linear_200_93" x1="26.928" y1="173.221" x2="32.7854" y2="173.221" gradientUnits="userSpaceOnUse">
<stop stop-color="#8A8A8A"/>
<stop offset="0.2857" stop-color="#F1F1F1"/>
<stop offset="1" stop-color="white"/>
</linearGradient>
<clipPath id="clip0_200_93">
<rect width="55" height="55" fill="white"/>
</clipPath>
</defs>
</svg>
